<?xml version="1.0" ?><svg viewBox="0 0 512 512" xmlns="http://www.w3.org/2000/svg"><g id="Champage"><path d="M444.5732,118.377l-.6474-.0113c-21.4356-.3628-41.2256,7.3438-55.5889,21.7066a8,8,0,0,0,11.3145,11.3134c11.2666-11.2675,26.874-17.3247,43.999-17.0219l.6435.0107a8,8,0,1,0,.2793-15.9975Z"/><path d="M364.1562,123.8906a7.9779,7.9779,0,0,0,5.6573-2.3432c14.3623-14.3619,22.0713-34.1036,21.706-55.5865l-.0107-.643a8,8,0,0,0-7.9961-7.8662c-.0449,0-.0908,0-.1367.0009a8,8,0,0,0-7.8653,8.1328l.0108.6451c.291,17.1089-5.7539,32.7358-17.0225,44.0034a8,8,0,0,0,5.6572,13.6567Z"/><path d="M405.3535,112.5317a7.9777,7.9777,0,0,0,5.6572-2.3432l35.47-35.4693A8,8,0,1,0,435.166,63.4058l-35.47,35.4692a8,8,0,0,0,5.6572,13.6567Z"/><path d="M348.7461,136.0405a7.0017,7.0017,0,0,0-8.48-1.0952l-40.7812,23.811a7,7,0,0,0-1.4209,10.9947l1.4141,1.4142-21.336,21.3358c-12.7913,12.7921-24.4129,17.8476-40.9663,20.0829-.0246.0042-.05.0053-.0746.01-5.2988.7122-11.0986,1.1392-17.609,1.4362A90.5218,90.5218,0,0,0,151.81,249.2456L61.231,366.7153a8,8,0,0,0,.6787,10.542l74.9477,74.9478a8,8,0,0,0,10.542.6787l117.47-90.58a90.5223,90.5223,0,0,0,35.2159-67.6821c.3041-6.6643.7426-12.5872,1.4857-17.9869.0136-.1025.0338-.2027.0436-.3066l0-.008c2.2779-16.2273,7.3667-27.7163,20-40.3489L342.95,214.6365l1.4138,1.4138a7,7,0,0,0,11.0654-1.544l23.1035-41.4887a7,7,0,0,0-1.165-8.3555ZM171.0908,366.7363c-7.6206,1.0586-14.2153-.7627-18.5825-5.13s-6.1895-10.9672-5.13-18.5825c1.1753-8.4448,5.6553-16.9282,12.6148-23.8877,8.352-8.352,18.9516-12.8554,28.0742-12.8554,5.666,0,10.7632,1.7378,14.396,5.3706,9.4819,9.4819,6.0542,28.9311-7.4849,42.47C188.019,361.0811,179.5356,365.561,171.0908,366.7363Zm84.0083-17.1025L206.644,386.9969l-12.1977-12.1977a64.4112,64.4112,0,0,0,11.8457-9.3641c20.0112-20.0108,23.3686-49.2134,7.4849-65.0972S168.69,287.812,148.68,307.8228a64.4036,64.4036,0,0,0-9.3641,11.8457L127.118,307.4709l37.363-48.4548a74.5475,74.5475,0,0,1,55.7412-29.0029c3.831-.1748,7.4794-.401,10.9761-.7034l3.27,42.0735a8,8,0,0,0,7.227,7.3447l43.1228,4.0562c-.3083,3.5372-.5386,7.2286-.7156,11.1084A74.5566,74.5566,0,0,1,255.0991,349.6338ZM310.3,224.6582c-13.5288,13.5285-20.03,26.4067-23.276,42.2629l-37.1254-3.4919-2.8222-36.3143c15.91-3.2379,28.8188-9.7381,42.3808-23.3l21.3354-21.3354,20.8433,20.8435Z"/></g></svg>