<?xml version="1.0" encoding="utf-8"?>
<!-- Generator: Adobe Illustrator 23.0.1, SVG Export Plug-In . SVG Version: 6.00 Build 0)  -->
<svg version="1.1" id="Capa_1" xmlns="http://www.w3.org/2000/svg" xmlns:xlink="http://www.w3.org/1999/xlink" x="0px" y="0px"
	 viewBox="0 0 841.89 595.28" style="enable-background:new 0 0 841.89 595.28;" xml:space="preserve">
<style type="text/css">
	.st0{fill:#FFFFFF;}
</style>
<rect width="841.89" height="595.28"/>
<g>
	<g>
		<path class="st0" d="M312.37,317.34v-26h-0.11l-8.89,26h-7.49L286.92,291h-0.11v26.34h-7.6v-39.4h10.47l9.91,28.99h0.11
			l9.85-28.99h10.41v39.4H312.37z"/>
		<path class="st0" d="M361.84,277.94l14.07,39.4h-7.77l-2.98-8.5h-14.75l-2.98,8.5h-7.77l14.07-39.4H361.84z M357.73,287.85
			l-4.95,14.24h9.96l-4.9-14.24H357.73z"/>
		<path class="st0" d="M395.61,317.34v-39.4h7.88v32.65h13.45v6.75H395.61z"/>
		<path class="st0" d="M465.07,294.09l-4.9,2.81v0.11l4.9,2.81v13.73l-6.53,3.77h-21.33v-39.4h21.33l6.53,3.77V294.09z
			 M445.09,284.69v8.89h12.1v-8.89H445.09z M445.09,300.34v10.24h12.1v-10.24H445.09z"/>
		<path class="st0" d="M496.6,300.45v10.13h15.7v6.75h-23.58v-39.4h23.58v6.75h-15.7v9.01h12.33v6.75H496.6z"/>
		<path class="st0" d="M554.8,305.8h7.88v8.05l-6.53,3.77h-15.93l-6.53-3.77v-32.42l6.53-3.77h15.93l6.53,3.77v8.05h-7.88v-5.07
			h-13.23v26.46h13.23V305.8z"/>
	</g>
	<g>
		<g>
			
				<rect x="463.27" y="232.99" transform="matrix(0.7071 -0.7071 0.7071 0.7071 -25.0136 410.552)" class="st0" width="39.69" height="4.96"/>
		</g>
		<g>
			
				<rect x="356.3" y="215.63" transform="matrix(0.7071 -0.7072 0.7072 0.7071 -61.4146 322.6918)" class="st0" width="4.96" height="39.68"/>
		</g>
		<g>
			
				<rect x="338.93" y="357.33" transform="matrix(0.7071 -0.7071 0.7071 0.7071 -149.3397 359.0883)" class="st0" width="39.68" height="4.96"/>
		</g>
		<g>
			
				<rect x="480.63" y="339.97" transform="matrix(0.7071 -0.7071 0.7071 0.7071 -112.919 447.0294)" class="st0" width="4.96" height="39.68"/>
		</g>
	</g>
</g>
</svg>
